<?xml version="1.0" encoding="utf-8"?>
<!-- Generator: Adobe Illustrator 16.0.0, SVG Export Plug-In . SVG Version: 6.00 Build 0)  -->
<!DOCTYPE svg PUBLIC "-//W3C//DTD SVG 1.1//EN" "http://www.w3.org/Graphics/SVG/1.1/DTD/svg11.dtd">
<svg version="1.1" id="圖層_1" xmlns="http://www.w3.org/2000/svg" xmlns:xlink="http://www.w3.org/1999/xlink" x="0px" y="0px"
	 width="177.449px" height="35.869px" viewBox="0 0 177.449 35.869" enable-background="new 0 0 177.449 35.869"
	 xml:space="preserve">
<g>
	<path fill="#3D3F42" d="M25.301,13.323c-0.055,0.299-0.11,2.967-0.11,4.675v3.835c0.326,0,1.923,0,3.227-0.055v1.166
		c-0.191,0-4.218-0.137-4.553-0.137c0.106-0.717,0.106-3.619,0.106-3.941v-1.805c0-0.216-0.024-3.483-0.051-3.738H25.301z"/>
	<path fill="#3D3F42" d="M32.601,13.323c-0.052,0.299-0.106,2.967-0.106,4.675v3.835c0.323,0,1.921,0,3.224-0.055v1.166
		c-0.188,0-4.215-0.137-4.552-0.137c0.106-0.717,0.106-3.619,0.106-3.941v-1.805c0-0.216-0.025-3.483-0.052-3.738H32.601z"/>
	<path fill="#3D3F42" d="M55.442,16.29c0-0.407-0.028-2.682-0.066-2.967c0.718,0,1.34,0.013,1.868,0.083
		c2.737,0.225,3.118,1.286,3.118,2.045c0,0.515-0.272,1.447-1.707,2.112v0.027c0.932,0.15,2.127,0.894,2.127,2.112
		c0,1.611-2.049,3.173-5.3,3.186h-0.106c0.066-0.745,0.066-4.84,0.066-5.095V16.29z M56.608,17.481
		c1.488-0.039,2.477-0.946,2.477-1.855c0-1.221-1.542-1.408-2.477-1.437V17.481z M56.608,21.911c1.478-0.148,2.818-0.85,2.818-2.127
		c0-0.948-1.111-1.61-2.818-1.531V21.911z"/>
	<path fill="#3D3F42" d="M63.276,18.553c0-3.009,2.128-5.445,5.392-5.445c2.562,0,4.497,1.689,4.497,4.616
		c0,2.119-1.405,5.3-5.256,5.3C64.956,23.023,63.276,20.937,63.276,18.553z M71.853,17.794c0-2.424-1.599-3.686-3.375-3.686
		c-2.424,0-3.904,1.922-3.904,4.241c0,2.018,1.328,3.673,3.459,3.673C70.064,22.022,71.853,20.464,71.853,17.794z"/>
	<path fill="#3D3F42" d="M77.139,16.535c0,2.193,0.097,3.198,0.626,4.131c0.526,0.921,1.368,1.314,2.345,1.314
		c1.163,0,1.907-0.584,2.357-1.284c0.649-1.018,0.662-2.674,0.662-4.799v-0.477c0-0.933-0.051-1.73-0.079-2.236h1.284
		c0,0.301,0.015,1.195,0.015,2.267v0.622c0,2.601-0.148,4.254-1.165,5.514c-0.8,0.975-1.816,1.437-3.251,1.437
		c-0.731,0-2.207-0.106-3.157-1.61c-0.638-1.018-0.868-2.073-0.868-5.369v-0.73c0-0.621,0.014-1.612,0.014-1.925h1.288
		c-0.028,0.353-0.07,0.991-0.07,2.224V16.535z"/>
	<path fill="#3D3F42" d="M90.612,22.808c0.068-0.352,0.079-4.309,0.079-6.465v-2.02c-1.558,0-3.483,0.07-3.831,0.125v-1.152
		c0.541,0.11,3.752,0.163,3.9,0.163h1.18c0.257,0,3.211-0.053,3.809-0.163v1.152c-0.189-0.055-2.698-0.125-3.836-0.125v2.236
		c0,2.752,0.137,5.978,0.161,6.248H90.612z"/>
	<path fill="#3D3F42" d="M103.731,22.808c0.109-0.717,0.109-3.619,0.109-3.941v-1.805c0-0.216-0.031-3.483-0.055-3.738
		c0.337,0,3.738-0.15,4.279-0.205l0.057,1.043l-3.064,0.07v3.454c0.246,0,2.168-0.083,2.805-0.122l0.043,1.046l-2.848-0.057v1.29
		c0,0.214-0.014,2.775,0.043,2.965H103.731z"/>
	<path fill="#3D3F42" d="M112.362,16.535c0,2.193,0.096,3.198,0.625,4.131c0.525,0.921,1.365,1.314,2.344,1.314
		c1.164,0,1.909-0.584,2.357-1.284c0.649-1.018,0.664-2.674,0.664-4.799v-0.477c0-0.933-0.057-1.73-0.083-2.236h1.286
		c0,0.301,0.018,1.195,0.018,2.267v0.622c0,2.601-0.149,4.254-1.168,5.514c-0.8,0.975-1.817,1.437-3.252,1.437
		c-0.732,0-2.208-0.106-3.158-1.61c-0.637-1.018-0.865-2.073-0.865-5.369v-0.73c0-0.621,0.015-1.612,0.015-1.925h1.284
		c-0.026,0.353-0.066,0.991-0.066,2.224V16.535z"/>
	<path fill="#3D3F42" d="M124.093,18.662c0,0.515,0.041,3.943,0.066,4.146h-1.314c0.055-0.325,0.03-4.62,0.03-4.908v-1.108
		c0-0.405-0.03-3.213-0.07-3.468c0.636,0,1.774,0.013,2.819,0.136c1.788,0.216,2.805,0.975,2.805,2.127
		c0,1.15-0.771,2.045-1.883,2.749c0.336,0.461,2.777,3.485,3.155,3.892l-1.027,0.827c-0.151-0.193-3.201-4.188-3.606-4.757
		c0.678-0.365,2.032-1.194,2.032-2.521c0-0.612-0.448-1.518-3.007-1.545V18.662z"/>
	<path fill="#3D3F42" d="M144.41,22.808c0.066-1.016,0.433-8.632,0.499-10.029h0.031c0.38,0.435,6.936,7.25,7.369,7.686
		c0-0.379,0.083-6.763,0.096-7.209l1.257,0.068c-0.053,0.813-0.31,6.355-0.361,9.768h-0.026c-0.369-0.364-7.226-7.397-7.468-7.736
		h-0.028c0,0.476-0.107,7.102-0.095,7.55L144.41,22.808z"/>
	<path fill="#3D3F42" d="M156.474,18.553c0-3.009,2.129-5.445,5.395-5.445c2.562,0,4.499,1.689,4.499,4.616
		c0,2.119-1.411,5.3-5.26,5.3C158.153,23.023,156.474,20.937,156.474,18.553z M165.05,17.794c0-2.424-1.598-3.686-3.373-3.686
		c-2.428,0-3.903,1.922-3.903,4.241c0,2.018,1.328,3.673,3.459,3.673C163.263,22.022,165.05,20.464,165.05,17.794z"/>
	<path fill="#3D3F42" d="M16.085,12.848h-0.029c-0.325,0.515-4.225,8.214-4.974,9.512l1.114,0.704
		c0.229-0.458,1.54-3.334,1.54-3.334c0.133-0.274,0.276-0.57,0.432-0.894c0,0,1.409-2.978,1.784-3.674
		c0.01-0.014,0.016-0.03,0.022-0.044l0.002,0.002c0.022-0.037,0.053-0.102,0.066-0.115c0.055,0.085,0.354,0.645,0.706,1.304l0,0
		l0.006,0.007c0.52,0.982,2.959,5.695,2.959,5.695c0.246,0.47,0.457,0.875,0.543,1.043l1.154-0.761
		C20.487,20.882,17.276,14.772,16.085,12.848z"/>
	<path fill="#3D3F42" d="M47.831,12.848h-0.026c-0.325,0.515-4.228,8.214-4.973,9.512l1.11,0.704
		c0.231-0.458,1.545-3.334,1.545-3.334c0.128-0.274,0.273-0.57,0.43-0.894c0,0,1.407-2.978,1.785-3.674
		c0.008-0.014,0.016-0.03,0.021-0.044l0.002,0.002c0.024-0.037,0.053-0.102,0.064-0.115c0.055,0.085,0.355,0.645,0.705,1.304l0,0
		l0.006,0.007c0.523,0.982,2.959,5.695,2.959,5.695c0.248,0.47,0.458,0.875,0.545,1.043l1.154-0.761
		C52.235,20.882,49.024,14.772,47.831,12.848z"/>
	<path fill="#3D3F42" d="M136.681,12.848h-0.023c-0.328,0.515-4.229,8.214-4.975,9.512l1.112,0.704
		c0.229-0.458,1.54-3.334,1.54-3.334c0.133-0.274,0.274-0.57,0.43-0.894c0,0,1.413-2.978,1.789-3.674
		c0.006-0.014,0.014-0.03,0.021-0.044v0.002c0.022-0.037,0.053-0.102,0.064-0.115c0.057,0.085,0.357,0.645,0.705,1.304l0,0
		l0.004,0.007c0.524,0.982,2.961,5.695,2.961,5.695c0.248,0.47,0.461,0.875,0.547,1.043l1.15-0.761
		C141.088,20.882,137.875,14.772,136.681,12.848z"/>
</g>
</svg>
