<?xml version="1.0" encoding="iso-8859-1"?>
<!-- Generator: Adobe Illustrator 19.0.0, SVG Export Plug-In . SVG Version: 6.00 Build 0)  -->
<svg xmlns="http://www.w3.org/2000/svg" xmlns:xlink="http://www.w3.org/1999/xlink" version="1.1" id="Capa_1" x="0px" y="0px" viewBox="0 0 496.261 496.261" style="enable-background:new 0 0 496.261 496.261;" xml:space="preserve" width="512px" height="512px">
<g>
	<g>
		<g>
			<path d="M248.118,79.989c-61.856,0-112,50.144-112,112s50.144,112,112,112s112-50.144,112-112     C360.047,130.162,309.944,80.059,248.118,79.989z M248.118,271.989c-44.183,0-80-35.817-80-80s35.817-80,80-80s80,35.817,80,80     C328.065,236.15,292.279,271.936,248.118,271.989z" fill="#898989"/>
			<path d="M404.47,157.861l31.296-6.768c-2.479-11.382-5.987-22.516-10.48-33.264l-29.52,12.368     C399.515,139.129,402.429,148.39,404.47,157.861z" fill="#898989"/>
			<path d="M440.006,185.669l-32,1.024c0,1.76,0,3.536,0,5.296c-0.064,66.875-41.689,126.664-104.384,149.936l-5.488,2.016     l-50.016,87.776l-50.128-87.728l-5.488-2.016c-82.839-30.76-125.057-122.85-94.297-205.689s122.85-125.057,205.689-94.297     c13.691,5.084,26.622,12.018,38.432,20.61l18.832-25.808C275.429-25.62,155.341-6.716,92.932,79.012     s-43.505,205.817,42.224,268.226c12.618,9.186,26.309,16.799,40.771,22.671l72.192,126.352l72.192-126.4     c72.367-29.44,119.722-99.746,119.808-177.872C440.118,189.877,440.118,187.765,440.006,185.669z" fill="#898989"/>
			<path d="M408.966,87.029c-6.389-9.73-13.634-18.87-21.648-27.312l-23.184,22.032c6.691,7.04,12.732,14.671,18.048,22.8     L408.966,87.029z" fill="#898989"/>
		</g>
	</g>
</g>
<g>
</g>
<g>
</g>
<g>
</g>
<g>
</g>
<g>
</g>
<g>
</g>
<g>
</g>
<g>
</g>
<g>
</g>
<g>
</g>
<g>
</g>
<g>
</g>
<g>
</g>
<g>
</g>
<g>
</g>
</svg>
