<?xml version="1.0" encoding="utf-8"?>
<!-- Generator: Adobe Illustrator 16.0.0, SVG Export Plug-In . SVG Version: 6.00 Build 0)  -->
<!DOCTYPE svg PUBLIC "-//W3C//DTD SVG 1.1//EN" "http://www.w3.org/Graphics/SVG/1.1/DTD/svg11.dtd">
<svg version="1.1" id="Capa_1" xmlns="http://www.w3.org/2000/svg" xmlns:xlink="http://www.w3.org/1999/xlink" x="0px" y="0px"
	 width="512px" height="512px" viewBox="0 0 512 512" enable-background="new 0 0 512 512" xml:space="preserve">
<g>
	<g>
		<g>
			<path fill="#898989" d="M175.294,80.706C78.636,80.706,0,159.342,0,256c0,96.657,78.636,175.294,175.294,175.294
				c96.658,0,175.296-78.638,175.296-175.294C350.59,159.343,271.952,80.706,175.294,80.706z M175.294,401.318
				c-80.13,0-145.318-65.189-145.318-145.317s65.189-145.318,145.318-145.318S320.613,175.87,320.613,256
				S255.423,401.318,175.294,401.318z"/>
		</g>
	</g>
	<g>
		<g>
			<path fill="#898989" d="M497.012,80.706c-8.276,0-14.987,6.711-14.987,14.987v54.652H456.28V95.694
				c0-8.276-6.711-14.987-14.988-14.987s-14.988,6.711-14.988,14.987v54.652h-25.745V95.694c0-8.276-6.711-14.987-14.988-14.987
				c-8.276,0-14.987,6.711-14.987,14.987v92.973c0,33.846,23.909,62.198,55.721,69.094v158.546c0,8.277,6.711,14.988,14.988,14.988
				s14.988-6.711,14.988-14.988V257.76c31.811-6.896,55.72-35.249,55.72-69.094V95.694C512,87.415,505.289,80.706,497.012,80.706z
				 M482.023,188.666c0.001,22.459-18.271,40.731-40.731,40.731c-22.461,0-40.733-18.271-40.733-40.731v-8.345h81.466
				L482.023,188.666L482.023,188.666z"/>
		</g>
	</g>
	<g>
		<g>
			<path fill="#898989" d="M253.226,178.069c-42.972-42.972-112.891-42.971-155.862,0c-42.903,42.903-42.756,112.864,0.009,155.854
				c5.813,5.703,15.141,5.734,20.981,0.007c5.909-5.795,6.001-15.285,0.206-21.194c-31.284-31.283-31.284-82.186,0-113.471
				c31.284-31.283,82.187-31.284,113.471,0c5.852,5.854,15.343,5.854,21.196,0C259.079,193.411,259.079,183.922,253.226,178.069z"/>
		</g>
	</g>
</g>
</svg>
