<?xml version="1.0" encoding="utf-8"?>
<!-- Generator: Adobe Illustrator 16.0.0, SVG Export Plug-In . SVG Version: 6.00 Build 0)  -->
<!DOCTYPE svg PUBLIC "-//W3C//DTD SVG 1.1//EN" "http://www.w3.org/Graphics/SVG/1.1/DTD/svg11.dtd">
<svg version="1.1" id="Capa_1" xmlns="http://www.w3.org/2000/svg" xmlns:xlink="http://www.w3.org/1999/xlink" x="0px" y="0px"
	 width="512px" height="512px" viewBox="0 0 512 512" enable-background="new 0 0 512 512" xml:space="preserve">
<g>
	<path fill="#898989" d="M255.955,44.647c30.615,0,60.293,5.331,88.206,15.846c26.766,10.082,50.764,24.465,71.327,42.75
		c41.432,36.84,64.248,85.431,64.248,136.82c0,52.42-22.501,101.295-63.358,137.62c-41.915,37.266-98.892,57.799-160.423,57.817
		c-15.006,0-65.435-7.143-92.206-11.865l-12.225-2.158l-10.481,6.651c-25.597,16.241-49.219,26.8-67.032,32.838
		c10.423-16.469,19.39-33.8,26.784-51.792l8.41-20.465l-16.177-15.096c-19.455-18.152-34.633-39.092-45.114-62.233
		c-10.385-22.934-15.651-46.936-15.651-71.34C32.264,132.3,132.611,44.647,255.955,44.647 M255.955,12.647
		C114.869,12.647,0.264,114.615,0.264,240.04c0,58.361,25.691,114.756,70.934,156.971c-10.159,24.722-23.617,48.104-40.065,69.521
		c-4.847,6.274-5.575,14.841-1.909,21.89c3.54,6.739,10.52,10.934,18.072,10.934h0.969c21.581-1.015,64.486-15.374,109.924-44.206
		c24.315,4.291,78.771,12.354,97.767,12.354c143.452-0.046,255.781-99.887,255.781-227.438
		C511.736,114.659,397.04,12.647,255.955,12.647L255.955,12.647z"/>
</g>
<path fill="#898989" d="M151.14,283.262c-19.333,0-34.963-15.63-34.963-34.956c0-19.334,15.63-34.956,34.963-34.956
	c19.327,0,34.948,15.622,34.948,34.956C186.088,267.632,170.467,283.262,151.14,283.262z"/>
<path fill="#898989" d="M256,283.262c-19.326,0-34.956-15.63-34.956-34.956c0-19.334,15.63-34.956,34.956-34.956
	s34.956,15.622,34.956,34.956C290.956,267.632,275.326,283.262,256,283.262z"/>
<path fill="#898989" d="M360.859,283.262c-19.326,0-34.948-15.63-34.948-34.956c0-19.334,15.622-34.956,34.948-34.956
	c19.334,0,34.964,15.622,34.964,34.956C395.823,267.632,380.193,283.262,360.859,283.262z"/>
</svg>
