<?xml version="1.0" encoding="utf-8"?>
<!-- Generator: Adobe Illustrator 16.0.0, SVG Export Plug-In . SVG Version: 6.00 Build 0)  -->
<!DOCTYPE svg PUBLIC "-//W3C//DTD SVG 1.1//EN" "http://www.w3.org/Graphics/SVG/1.1/DTD/svg11.dtd">
<svg version="1.1" id="Capa_1" xmlns="http://www.w3.org/2000/svg" xmlns:xlink="http://www.w3.org/1999/xlink" x="0px" y="0px"
	 width="512px" height="512px" viewBox="0 0 512 512" enable-background="new 0 0 512 512" xml:space="preserve">
<path fill="#898989" d="M410.887,155.222l-0.902,1.335c-1.964,3.684-4.76,7.696-6.772,10.905l100.124,139.261
	c4.665,6.489,3.774,14.779-2.714,19.445l-1.446,1.039c-6.489,4.665-15.387,3.413-20.052-3.076L383.12,190.603
	c-4.058,3.371-5.931,4.959-9.063,7.21c-21.135,15.196-47.02,23.487-73.692,22.914L271.47,297.74
	c13.02,8.293,24.07,19.625,32.038,33.391c14.698,25.395,17.222,55.702,6.899,83.167l-6.027,16.054l199.958-0.021l0.003,1.778
	c0.001,15.984-12.955,28.943-28.94,28.945l-355.985,0.029c-7.993,0.003-14.472-6.477-14.472-14.47l0-1.78
	c-0.002-7.992,6.477-14.472,14.47-14.474l131.854-0.013c-0.46-4.012-0.021-8.186,1.496-12.226l8.396-22.35
	c4.753-12.648,3.597-26.612-3.172-38.308c-6.767-11.696-18.301-19.654-31.634-21.836c-0.162-0.027-0.317-0.073-0.479-0.104
	c-3.297-0.34-6.605-1.102-9.854-2.322c-20.405-7.666-30.731-30.424-23.062-50.827l25.052-66.669
	c-17.14,5.291-31.963,17.19-40.716,33.843c-6.753,12.864-22.667,17.813-35.531,11.052c-12.644-6.642-17.614-22.119-11.362-34.86
	l-113.66-28.01c-7.761-1.912-12.5-9.754-10.589-17.513l0.426-1.728c1.912-7.761,9.753-12.502,17.513-10.589l125.263,30.87
	c27.236-29.3,67.753-43.842,108.649-37.156l15.513,2.536l2.447,0.4l15.94,2.606c29.171,4.769,58.116-9.554,72.023-35.637
	l0.604-1.131c6.844-12.819,22.782-17.663,35.604-10.817C412.955,126.413,417.729,142.403,410.887,155.222z M316.59,132.813
	c20.265-14.57,24.884-42.812,10.313-63.079c-14.571-20.267-42.813-24.884-63.078-10.313c-20.268,14.571-24.884,42.812-10.312,63.079
	C268.083,142.767,296.324,147.383,316.59,132.813z"/>
</svg>
